<svg xmlns="http://www.w3.org/2000/svg" viewBox="0 0 50 55.692"><defs><style>.a{fill:#fff;}.b,.d{fill:#f788cf;}.c,.d{stroke:none;}</style></defs><g transform="translate(-8397 -6019)"><g class="a" transform="translate(8397 6019)"><path class="c" d="M 25.36466026306152 54.2778205871582 L 19.63752937316895 48.55125045776367 L 19.44148063659668 48.35520935058594 L 19.17247009277344 48.28812026977539 C 16.59832000732422 47.64607238769531 14.1617603302002 46.58449172973633 11.93045997619629 45.13286209106445 C 9.736030578613281 43.7052116394043 7.798460483551025 41.93928909301758 6.171560287475586 39.88415908813477 C 4.529410362243652 37.80974960327148 3.250820159912109 35.49925994873047 2.371320247650146 33.01687240600586 C 1.461380243301392 30.44855117797852 1.000000238418579 27.75135040283203 1.000000238418579 25.00020027160645 C 1.000000238418579 21.75984001159668 1.634440302848816 18.61691093444824 2.885690212249756 15.65869045257568 C 4.094460487365723 12.80090045928955 5.825130462646484 10.23411083221436 8.029620170593262 8.029621124267578 C 10.23410987854004 5.825130462646484 12.80090045928955 4.094460487365723 15.65869045257568 2.885690689086914 C 18.61691093444824 1.634440660476685 21.75984001159668 1.000000715255737 25.00020027160645 1.000000715255737 C 28.24056053161621 1.000000715255737 31.38348960876465 1.634440660476685 34.34170913696289 2.885690689086914 C 37.19950103759766 4.094460487365723 39.76628875732422 5.825130462646484 41.97077941894531 8.029621124267578 C 44.17527008056641 10.23411083221436 45.90594100952148 12.80090045928955 47.11471176147461 15.65869045257568 C 48.36595916748047 18.61691093444824 49.00040054321289 21.75984001159668 49.00040054321289 25.00020027160645 C 49.00040054321289 27.66678047180176 48.56631088256836 30.28555107116699 47.71020126342773 32.78376007080078 C 46.88251113891602 35.19900894165039 45.67636871337891 37.45917129516602 44.12527847290039 39.50146102905273 C 42.59062194824219 41.52212905883789 40.75635147094727 43.28021240234375 38.67343902587891 44.72686004638672 C 36.5613899230957 46.19375228881836 34.24468994140625 47.30419158935547 31.78770065307617 48.02735137939453 L 31.54318046569824 48.09931945800781 L 31.36293983459473 48.2795524597168 L 25.36466026306152 54.2778205871582 Z"/><path class="d" d="M 25.36463165283203 52.86365127563477 L 30.65583992004395 47.57245254516602 L 31.01630973815918 47.21197128295898 L 31.50535011291504 47.06803894042969 C 33.85935211181641 46.37519073486328 36.07912063598633 45.31117248535156 38.10300064086914 43.90552139282227 C 40.09957122802734 42.51882934570312 41.85783004760742 40.83359909057617 43.32891845703125 38.89664077758789 C 44.81536865234375 36.93946075439453 45.97116088867188 34.77371978759766 46.76420211791992 32.45957946777344 C 47.58448028564453 30.06594085693359 48.00040054321289 27.55624008178711 48.00040054321289 25.00020027160645 C 48.00040054321289 21.89440155029297 47.39253997802734 18.88253021240234 46.19371032714844 16.04825019836426 C 45.03535079956055 13.30965042114258 43.37665176391602 10.84970092773438 41.263671875 8.736730575561523 C 39.15069961547852 6.623750686645508 36.69075012207031 4.96505069732666 33.9521484375 3.806690692901611 C 31.11787033081055 2.607860565185547 28.10600090026855 2.000000715255737 25.00020027160645 2.000000715255737 C 21.89439964294434 2.000000715255737 18.88253021240234 2.607860565185547 16.04825019836426 3.806690692901611 C 13.30965042114258 4.96505069732666 10.84969997406006 6.623750686645508 8.736730575561523 8.736730575561523 C 6.62375020980835 10.84970092773438 4.965050220489502 13.30965042114258 3.806690216064453 16.04825019836426 C 2.607860326766968 18.88253021240234 2.000000238418579 21.89440155029297 2.000000238418579 25.00020027160645 C 2.000000238418579 27.63728141784668 2.442060232162476 30.22212028503418 3.313910245895386 32.68292236328125 C 4.156610488891602 35.06143951416016 5.381860256195068 37.27545928955078 6.955620288848877 39.26346969604492 C 8.515130043029785 41.23347091674805 10.37238025665283 42.92620086669922 12.47579002380371 44.29463195800781 C 14.61380004882812 45.68558120727539 16.94831085205078 46.70273208618164 19.41447067260742 47.31784057617188 L 19.95248985290527 47.45203018188477 L 20.34460067749023 47.84411239624023 L 25.36463165283203 52.86365127563477 M 25.36470031738281 55.69200134277344 L 18.93045997619629 49.25839233398438 C 8.056509971618652 46.54621887207031 2.716064386731887e-07 36.71382141113281 2.716064386731887e-07 25.00020027160645 C 2.716064386731887e-07 11.19330024719238 11.19330024719238 6.713867151120212e-07 25.00020027160645 6.713867151120212e-07 C 38.80709838867188 6.713867151120212e-07 50.00040054321289 11.19330024719238 50.00040054321289 25.00020027160645 C 50.00040054321289 36.35145950317383 42.43383026123047 45.93634033203125 32.07004928588867 48.98666000366211 L 25.36470031738281 55.69200134277344 Z"/></g><path class="b" d="M31.708,19.361a4.469,4.469,0,1,0-4.47-4.469A4.468,4.468,0,0,0,31.708,19.361Zm4.568.749H27.139a1.809,1.809,0,0,0-1.807,1.808v9.465h2.582v9.8H35.5v-9.8h2.582V21.918A1.81,1.81,0,0,0,36.276,20.11Z" transform="translate(8390.668 6018.37)"/></g></svg>