<svg xmlns="http://www.w3.org/2000/svg" viewBox="0 0 50 63"><defs><style>.a{fill:rgba(70,108,110,0.2);}.b{fill:rgba(255,255,255,0.7);}.c,.e{fill:#f788cf;}.d,.e{stroke:none;}</style></defs><g transform="translate(-2679 -6019)"><path class="a" d="M12.115,5.307C5.156,5.014,0,3.955,0,2.693,0,1.206,7.164,0,16,0S32,1.206,32,2.693c0,1.223-4.842,2.255-11.475,2.584L16.233,6Z" transform="translate(2688 6070)"/><g transform="translate(-5636)"><g class="b" transform="translate(8315 6019)"><path class="d" d="M 25.36425018310547 53.44955444335938 C 24.82986068725586 53.44955444335938 24.32747077941895 53.241455078125 23.94960975646973 52.86359405517578 L 19.63721084594727 48.55119705200195 L 19.44114112854004 48.35513687133789 L 19.17210960388184 48.28803634643555 C 16.59797096252441 47.64599609375 14.16141986846924 46.58441543579102 11.93016052246094 45.13278579711914 C 9.735770225524902 43.70515441894531 7.798240184783936 41.93924713134766 6.171390056610107 39.88412475585938 C 4.529280185699463 37.80972671508789 3.25074028968811 35.4992561340332 2.371270179748535 33.01686477661133 C 1.461360216140747 30.44855499267578 1.000000238418579 27.75136566162109 1.000000238418579 25.00020599365234 C 1.000000238418579 21.75984573364258 1.634440302848816 18.61691474914551 2.885690212249756 15.65869522094727 C 4.094460487365723 12.80090522766113 5.825130462646484 10.23411560058594 8.029620170593262 8.029624938964844 C 10.23410987854004 5.825135231018066 12.80090045928955 4.094465255737305 15.65869045257568 2.885695219039917 C 18.61691093444824 1.634445309638977 21.75984001159668 1.00000536441803 25.00020027160645 1.00000536441803 C 28.24056053161621 1.00000536441803 31.38348960876465 1.634445309638977 34.34170913696289 2.885695219039917 C 37.19950103759766 4.094465255737305 39.76628875732422 5.825135231018066 41.97077941894531 8.029624938964844 C 44.17527008056641 10.23411560058594 45.90594100952148 12.80090522766113 47.11471176147461 15.65869522094727 C 48.36595916748047 18.61691474914551 49.00040054321289 21.75984573364258 49.00040054321289 25.00020599365234 C 49.00040054321289 27.66678619384766 48.56631088256836 30.28555488586426 47.71020126342773 32.78376388549805 C 46.88251113891602 35.19901657104492 45.67636871337891 37.45917510986328 44.12527847290039 39.50146484375 C 42.59062194824219 41.52212524414062 40.75635147094727 43.28020477294922 38.67343902587891 44.72686386108398 C 36.5613899230957 46.19375610351562 34.24468994140625 47.30419540405273 31.78770065307617 48.0273551940918 L 31.54318046569824 48.09932708740234 L 31.36293983459473 48.27955627441406 L 26.77889060974121 52.86359405517578 C 26.40102958679199 53.241455078125 25.89863967895508 53.44955444335938 25.36425018310547 53.44955444335938 Z"/><path class="e" d="M 25.36425018310547 52.44955444335938 C 25.51904106140137 52.44955444335938 25.81680107116699 52.41148376464844 26.07179069519043 52.15648651123047 L 30.65583992004395 47.57244491577148 L 31.01630973815918 47.21197509765625 L 31.50535011291504 47.06804656982422 C 33.85935211181641 46.37520599365234 36.07912063598633 45.31117630004883 38.10300064086914 43.90552520751953 C 40.09957122802734 42.51883697509766 41.85783004760742 40.8336067199707 43.32891845703125 38.89663696289062 C 44.81536865234375 36.9394645690918 45.97116088867188 34.77372360229492 46.76420211791992 32.45957565307617 C 47.58448028564453 30.0659351348877 48.00040054321289 27.55624580383301 48.00040054321289 25.00020599365234 C 48.00040054321289 21.89440536499023 47.39253997802734 18.88253593444824 46.19371032714844 16.04825592041016 C 45.03535079956055 13.30965518951416 43.37665176391602 10.84970569610596 41.263671875 8.736735343933105 C 39.15069961547852 6.62375545501709 36.69075012207031 4.965055465698242 33.9521484375 3.806695222854614 C 31.11787033081055 2.607865333557129 28.10600090026855 2.00000524520874 25.00020027160645 2.00000524520874 C 21.89439964294434 2.00000524520874 18.88253021240234 2.607865333557129 16.04825019836426 3.806695222854614 C 13.30965042114258 4.965055465698242 10.84969997406006 6.62375545501709 8.736730575561523 8.736735343933105 C 6.62375020980835 10.84970569610596 4.965050220489502 13.30965518951416 3.806690216064453 16.04825592041016 C 2.607860326766968 18.88253593444824 2.000000238418579 21.89440536499023 2.000000238418579 25.00020599365234 C 2.000000238418579 27.63729476928711 2.442050218582153 30.22213554382324 3.313860177993774 32.68292617797852 C 4.156530380249023 35.06144714355469 5.381740093231201 37.27544403076172 6.955460071563721 39.26344680786133 C 8.514910697937012 41.23343658447266 10.37211990356445 42.92614364624023 12.47549057006836 44.2945671081543 C 14.61347007751465 45.68550491333008 16.94795989990234 46.70264434814453 19.41411018371582 47.31775665283203 L 19.95218086242676 47.45196533203125 L 20.34431076049805 47.84409713745117 L 24.65670967102051 52.156494140625 C 24.91170120239258 52.41148376464844 25.2094612121582 52.44955444335938 25.36425018310547 52.44955444335938 M 25.36425018310547 54.44955444335938 C 24.59632110595703 54.44955444335938 23.82839965820312 54.1566047668457 23.24250030517578 53.57070541381836 L 18.93009948730469 49.25830459594727 C 8.056150436401367 46.54613494873047 2.716064386731887e-07 36.71381378173828 2.716064386731887e-07 25.00020599365234 C 2.716064386731887e-07 11.19330501556396 11.19330024719238 5.314331247063819e-06 25.00020027160645 5.314331247063819e-06 C 38.80709838867188 5.314331247063819e-06 50.00040054321289 11.19330501556396 50.00040054321289 25.00020599365234 C 50.00040054321289 36.35145568847656 42.43383026123047 45.93634414672852 32.07004928588867 48.98666381835938 L 27.48600006103516 53.57070541381836 C 26.90010070800781 54.1566047668457 26.13218116760254 54.44955444335938 25.36425018310547 54.44955444335938 Z"/></g></g><path class="c" d="M31.708,19.361a4.469,4.469,0,1,0-4.47-4.469A4.468,4.468,0,0,0,31.708,19.361Zm4.568.749H27.139a1.809,1.809,0,0,0-1.807,1.808v9.465h2.582v9.8H35.5v-9.8h2.582V21.918A1.81,1.81,0,0,0,36.276,20.11Z" transform="translate(2672.668 6018.37)"/></g></svg>