<svg width="512" height="512" viewBox="0 0 512 512" fill="none" xmlns="http://www.w3.org/2000/svg">
<rect width="512" height="512" fill="#E87BC1"/>
<path d="M124.086 306.452C124.135 299.734 124.959 293.045 126.541 286.516C126.316 286.516 120.949 287.41 118.486 287.41C95.0093 287.41 76 262.811 76 232.385C76 201.959 95.0093 177.36 118.486 177.36C126.431 178.471 134.138 180.887 141.295 184.511C154.48 139.333 200.997 106 256 106C311.003 106 357.295 139.339 370.705 184.511C377.861 180.885 385.568 178.469 393.514 177.36C416.991 177.36 436 201.966 436 232.385C436 262.804 416.991 287.41 393.514 287.41C390.815 287.254 388.126 286.956 385.459 286.516C387.041 293.045 387.865 299.734 387.914 306.452C387.914 361.49 328.887 406 255.994 406C183.1 406 124.086 361.49 124.086 306.452ZM161.204 215.413C161.118 226.673 163.483 237.817 168.134 248.07C169.11 250.169 169.419 252.517 169.017 254.797C168.616 257.077 167.525 259.178 165.891 260.817C159.691 266.447 154.693 273.273 151.196 280.884C147.7 288.495 145.777 296.735 145.544 305.108C145.544 347.387 194.961 381.639 256 381.639C317.039 381.639 366.456 347.194 366.231 305.108C365.997 296.735 364.074 288.495 360.578 280.884C357.082 273.273 352.084 266.447 345.884 260.817C344.25 259.178 343.159 257.077 342.758 254.797C342.356 252.517 342.665 250.169 343.641 248.07C348.292 237.817 350.657 226.673 350.571 215.413C350.571 179.624 328.212 150.767 300.711 150.767C293.625 151.019 286.696 152.931 280.484 156.35C274.271 159.769 268.948 164.6 264.942 170.453C263.888 171.859 262.52 173 260.949 173.786C259.377 174.571 257.644 174.98 255.887 174.98C254.131 174.98 252.398 174.571 250.826 173.786C249.255 173 247.887 171.859 246.833 170.453C242.824 164.6 237.499 159.769 231.284 156.35C225.069 152.931 218.139 151.019 211.051 150.767C183.563 150.767 161.204 179.624 161.204 215.439V215.413ZM91.885 233.53C91.885 254.752 106.189 272.226 123.861 272.226C124.76 272.206 125.658 272.281 126.541 272.451C128.297 272.248 129.98 271.637 131.456 270.665C132.932 269.693 134.16 268.388 135.04 266.856C137.138 263.166 139.531 259.651 142.195 256.347C143.373 254.763 144.133 252.908 144.406 250.952C144.679 248.996 144.456 247.004 143.757 245.157C139.643 234.373 137.521 222.93 137.496 211.387V206.885C137.65 204.161 136.804 201.475 135.117 199.331C133.43 197.188 131.018 195.735 128.335 195.245C126.85 194.973 125.345 194.825 123.835 194.801C106.221 194.859 91.885 212.056 91.885 233.53ZM383.684 194.833C381.018 195.352 378.626 196.811 376.945 198.945C375.264 201.079 374.404 203.746 374.524 206.461V210.963C374.518 222.51 372.396 233.958 368.262 244.739C367.507 246.574 367.254 248.577 367.529 250.543C367.803 252.508 368.595 254.365 369.824 255.923C372.489 259.231 374.883 262.747 376.986 266.438C377.866 267.97 379.094 269.274 380.57 270.244C382.046 271.215 383.729 271.825 385.484 272.026C386.287 272.224 387.115 272.3 387.94 272.251C405.612 272.251 419.916 255.029 420.141 233.105C420.141 211.882 405.837 194.409 388.165 194.409C386.662 194.447 385.164 194.597 383.684 194.859V194.833ZM253.551 340.904C217.994 339.341 189.599 314.729 189.599 284.953C189.614 282.586 190.561 280.321 192.233 278.646C193.905 276.972 196.169 276.024 198.535 276.007C200.903 276.021 203.17 276.967 204.845 278.642C206.521 280.316 207.468 282.584 207.484 284.953C207.484 305.533 228.949 322.312 255.781 322.98C282.614 322.337 304.079 305.539 304.079 284.953C304.094 282.584 305.042 280.316 306.717 278.642C308.393 276.967 310.66 276.021 313.028 276.007C315.396 276.021 317.663 276.967 319.338 278.642C321.013 280.316 321.961 282.584 321.976 284.953C321.976 314.935 293.569 339.322 258.025 340.904H253.551ZM271.281 237.594C271.281 225.137 278.481 215.085 287.352 215.085C296.224 215.085 303.424 225.188 303.424 237.594C303.424 250 296.217 260.103 287.352 260.103C278.487 260.103 271.326 250.051 271.281 237.594ZM208.075 237.594C208.075 225.137 215.294 215.085 224.146 215.085C232.999 215.085 240.218 225.188 240.218 237.594C240.218 250 233.05 260.103 224.146 260.103C215.243 260.103 208.126 250.051 208.075 237.594Z" fill="#C1629F"/>
</svg>
