<svg xmlns="http://www.w3.org/2000/svg" viewBox="0 0 40 33.182"><defs><style>.a{fill:#fff;}</style></defs><path class="a" d="M35.087,7.893A4.2,4.2,0,0,0,32.7,8.66C31.222,3.674,26.106,0,20.014,0S8.791,3.683,7.317,8.673a4.187,4.187,0,0,0-2.4-.78C2.2,7.893,0,10.619,0,13.985s2.2,6.092,4.917,6.092A4.164,4.164,0,0,0,5.675,20a8.4,8.4,0,0,0-.286,2.164c0,6.083,6.546,11.014,14.62,11.014s14.62-4.931,14.62-11.014a8.568,8.568,0,0,0-.281-2.159,3.955,3.955,0,0,0,.735.068C37.8,20.077,40,17.346,40,13.985S37.8,7.893,35.087,7.893ZM5.353,18.408c-1.951,0-3.529-1.919-3.529-4.287S3.4,9.834,5.353,9.834a3.029,3.029,0,0,1,1.592.463,10.235,10.235,0,0,0-.091,1.347,10.445,10.445,0,0,0,.98,4.409,10.493,10.493,0,0,0-1.511,2.191A3.027,3.027,0,0,1,5.353,18.408ZM20.014,30.5c-6.763,0-12.248-3.792-12.248-8.474a7.124,7.124,0,0,1,2.858-5.439,8.494,8.494,0,0,1-1.234-4.5c0-3.951,2.477-7.154,5.53-7.154,2.236,0,4.16,1.715,5.031,4.182.871-2.468,2.794-4.182,5.031-4.182,3.053,0,5.53,3.2,5.53,7.154a8.514,8.514,0,0,1-1.193,4.436,7.15,7.15,0,0,1,2.944,5.507C32.261,26.709,26.777,30.5,20.014,30.5ZM34.652,18.408a2.912,2.912,0,0,1-.971-.168,10.324,10.324,0,0,0-1.511-2.191,10.445,10.445,0,0,0,.98-4.409,10.131,10.131,0,0,0-.091-1.347,3,3,0,0,1,1.592-.463c1.951,0,3.529,1.919,3.529,4.287S36.6,18.408,34.652,18.408Z" transform="translate(0 0)"/><path class="a" d="M325.251,272.046a2.224,2.224,0,1,0-1.751-2.173A1.992,1.992,0,0,0,325.251,272.046Z" transform="translate(-308.825 -255.557)"/><path class="a" d="M480.051,272.046a2.224,2.224,0,1,0-1.751-2.173A2,2,0,0,0,480.051,272.046Z" transform="translate(-456.604 -255.557)"/><path class="a" d="M273.995,410.809c-.045,0-.1-.009-.141-.009a1,1,0,0,0-.984.853,6.3,6.3,0,0,1-6.251,5.384,6.351,6.351,0,0,1-4.16-1.551,6.256,6.256,0,0,1-2.091-3.833,1,1,0,0,0-.984-.853c-.045,0-.1,0-.141.009a.993.993,0,0,0-.844,1.12,8.3,8.3,0,0,0,16.43,0,.987.987,0,0,0-.191-.735A.95.95,0,0,0,273.995,410.809Z" transform="translate(-246.669 -392.165)"/></svg>