<svg xmlns="http://www.w3.org/2000/svg" viewBox="0 0 40 33.358"><defs><style>.a{fill:#fff;}</style></defs><g transform="translate(-0.1)"><path class="a" d="M35.423,7.935a5.783,5.783,0,0,0-1.866.5.662.662,0,0,1-.9-.4C30.9,3.358,25.945,0,20.124,0S9.329,3.358,7.587,8.035a.67.67,0,0,1-.9.4,5.954,5.954,0,0,0-1.866-.5C2.214,7.935.1,10.671.1,14.054s2.114,6.119,4.726,6.119h0a.694.694,0,0,1,.7.8,10.186,10.186,0,0,0-.1,1.318c0,6.119,6.567,11.069,14.676,11.069s14.676-4.95,14.676-11.069a10.545,10.545,0,0,0-.1-1.318.707.707,0,0,1,.7-.8h0c2.612,0,4.726-2.736,4.726-6.119C40.149,10.671,38.035,7.935,35.423,7.935Zm-30,10.547c-1.965,0-3.557-1.94-3.557-4.3,0-2.388,1.592-4.3,3.557-4.3a2.811,2.811,0,0,1,1.119.224.705.705,0,0,1,.423.7c-.025.3-.05.6-.05.9a10.634,10.634,0,0,0,.821,4.055.707.707,0,0,1-.1.7,11.96,11.96,0,0,0-1.119,1.642.7.7,0,0,1-.448.348A5.253,5.253,0,0,1,5.423,18.482Zm14.7,12.164c-6.791,0-12.288-3.806-12.288-8.507a7.017,7.017,0,0,1,2.537-5.174.681.681,0,0,0,.149-.821,8.612,8.612,0,0,1-.92-3.98c0-3.98,2.488-7.189,5.547-7.189a5.228,5.228,0,0,1,4.4,2.811.677.677,0,0,0,1.169,0,5.281,5.281,0,0,1,4.4-2.811c3.06,0,5.547,3.209,5.547,7.189a8.934,8.934,0,0,1-.92,3.98.649.649,0,0,0,.149.821,7.017,7.017,0,0,1,2.537,5.174C32.413,26.815,26.915,30.646,20.124,30.646ZM34.8,18.482a3.087,3.087,0,0,1-.672-.075.7.7,0,0,1-.448-.348,11.959,11.959,0,0,0-1.119-1.642.7.7,0,0,1-.1-.7,10.634,10.634,0,0,0,.821-4.055c0-.3-.025-.6-.05-.9a.705.705,0,0,1,.423-.7,2.811,2.811,0,0,1,1.119-.224c1.965,0,3.557,1.94,3.557,4.3C38.358,16.567,36.766,18.482,34.8,18.482Z"/><g transform="translate(14.901 12.189)"><path class="a" d="M89.066,53.378A2.24,2.24,0,1,0,87.3,51.189,2.009,2.009,0,0,0,89.066,53.378Z" transform="translate(-80.41 -49)"/><path class="a" d="M61.366,53.378A2.24,2.24,0,1,0,59.6,51.189,2.009,2.009,0,0,0,61.366,53.378Z" transform="translate(-59.6 -49)"/></g><path class="a" d="M58.437,83.27c4.055-.174,7.264-3.01,7.114-6.443a.6.6,0,0,0-.249-.473,1.026,1.026,0,0,0-1.741.721c0,2.289-2.388,4.154-5.373,4.229-3.06-.075-5.5-2.015-5.373-4.378a.744.744,0,0,0-.274-.572,1.037,1.037,0,0,0-1.741.721c0,3.308,3.159,6.045,7.114,6.219A4.037,4.037,0,0,1,58.437,83.27Z" transform="translate(-38.088 -57.151)"/></g></svg>