<svg xmlns="http://www.w3.org/2000/svg" viewBox="0 0 56.001 46.644"><defs><style>.a{fill:#f788cf;}</style></defs><path class="a" d="M-1763.521-6063.248a13.585,13.585,0,0,1,.382-3.1c-.035,0-.87.139-1.253.139-3.652,0-6.609-3.825-6.609-8.556s2.956-8.556,6.609-8.556a11.313,11.313,0,0,1,3.548,1.112c2.051-7.025,9.287-12.208,17.843-12.208s15.757,5.184,17.843,12.208a11.313,11.313,0,0,1,3.548-1.112c3.652,0,6.609,3.826,6.609,8.556s-2.956,8.556-6.609,8.556a11.908,11.908,0,0,1-1.253-.139,13.585,13.585,0,0,1,.382,3.1c0,8.558-9.182,15.479-20.521,15.479S-1763.521-6054.69-1763.521-6063.248Zm5.774-14.156a12.064,12.064,0,0,0,1.078,5.078,1.757,1.757,0,0,1-.349,1.982,9.666,9.666,0,0,0-3.164,6.887c0,6.574,7.687,11.9,17.182,11.9s17.182-5.356,17.147-11.9a9.665,9.665,0,0,0-3.165-6.887,1.754,1.754,0,0,1-.347-1.982,12.086,12.086,0,0,0,1.077-5.078c0-5.565-3.478-10.052-7.756-10.052a7.048,7.048,0,0,0-5.564,3.061,1.761,1.761,0,0,1-2.817,0,7.05,7.05,0,0,0-5.566-3.061C-1754.269-6087.456-1757.747-6082.969-1757.747-6077.4Zm-10.783,2.817c0,3.3,2.225,6.017,4.974,6.017a1.981,1.981,0,0,1,.418.035,1.757,1.757,0,0,0,1.321-.87,12.246,12.246,0,0,1,1.114-1.634,1.83,1.83,0,0,0,.243-1.74,14.82,14.82,0,0,1-.974-5.251v-.7a1.74,1.74,0,0,0-1.426-1.81,4.259,4.259,0,0,0-.7-.069C-1766.3-6080.6-1768.53-6077.925-1768.53-6074.586Zm45.391-6.017a1.763,1.763,0,0,0-1.426,1.808v.7a14.689,14.689,0,0,1-.974,5.252,1.739,1.739,0,0,0,.243,1.739,12.355,12.355,0,0,1,1.114,1.635,1.755,1.755,0,0,0,1.321.869,1.288,1.288,0,0,0,.382.035c2.748,0,4.974-2.678,5.009-6.087,0-3.3-2.225-6.017-4.974-6.017A4.669,4.669,0,0,0-1723.139-6080.6Zm-20.243,22.713c-5.531-.243-9.948-4.07-9.948-8.7a1.4,1.4,0,0,1,1.39-1.391,1.4,1.4,0,0,1,1.392,1.391c0,3.2,3.339,5.809,7.513,5.913,4.174-.1,7.513-2.712,7.513-5.913a1.4,1.4,0,0,1,1.392-1.391,1.4,1.4,0,0,1,1.392,1.391c0,4.662-4.417,8.454-9.948,8.7Zm2.758-16.064c0-1.937,1.121-3.5,2.5-3.5s2.5,1.571,2.5,3.5-1.121,3.5-2.5,3.5S-1740.619-6072.018-1740.625-6073.955Zm-9.832,0c0-1.937,1.123-3.5,2.5-3.5s2.5,1.571,2.5,3.5-1.115,3.5-2.5,3.5S-1750.449-6072.018-1750.456-6073.955Z" transform="translate(1771 6094.413)"/></svg>