<svg xmlns="http://www.w3.org/2000/svg" viewBox="0 0 56 46.455"><defs><style>.a{fill:#f788cf;}</style></defs><path class="a" d="M49.122,11.05a5.874,5.874,0,0,0-3.34,1.073C43.711,5.144,36.548,0,28.019,0S12.308,5.157,10.244,12.142A5.862,5.862,0,0,0,6.878,11.05C3.08,11.05,0,14.867,0,19.579s3.08,8.529,6.884,8.529a5.83,5.83,0,0,0,1.061-.1,11.766,11.766,0,0,0-.4,3.029c0,8.516,9.164,15.419,20.468,15.419s20.468-6.9,20.468-15.419a12,12,0,0,0-.394-3.023,5.537,5.537,0,0,0,1.029.1c3.8,0,6.884-3.823,6.884-8.529S52.92,11.05,49.122,11.05ZM7.494,25.771c-2.731,0-4.941-2.686-4.941-6s2.21-6,4.941-6a4.24,4.24,0,0,1,2.229.648A14.329,14.329,0,0,0,9.6,16.3a14.622,14.622,0,0,0,1.372,6.173,14.69,14.69,0,0,0-2.115,3.067A4.238,4.238,0,0,1,7.494,25.771ZM28.019,42.7c-9.469,0-17.147-5.309-17.147-11.863a9.974,9.974,0,0,1,4-7.614,11.892,11.892,0,0,1-1.727-6.3c0-5.531,3.467-10.015,7.741-10.015,3.131,0,5.824,2.4,7.043,5.855C29.149,9.31,31.842,6.91,34.973,6.91c4.274,0,7.741,4.484,7.741,10.015a11.919,11.919,0,0,1-1.67,6.211,10.01,10.01,0,0,1,4.122,7.71C45.166,37.393,37.488,42.7,28.019,42.7ZM48.513,25.771a4.076,4.076,0,0,1-1.359-.235,14.453,14.453,0,0,0-2.115-3.067A14.622,14.622,0,0,0,46.411,16.3a14.183,14.183,0,0,0-.127-1.886,4.207,4.207,0,0,1,2.229-.648c2.731,0,4.941,2.686,4.941,6S51.243,25.771,48.513,25.771Z" transform="translate(0 0)"/><path class="a" d="M325.951,273.784a3.113,3.113,0,1,0-2.451-3.042A2.789,2.789,0,0,0,325.951,273.784Z" transform="translate(-302.956 -250.699)"/><path class="a" d="M480.751,273.784a3.113,3.113,0,1,0-2.451-3.042A2.794,2.794,0,0,0,480.751,273.784Z" transform="translate(-447.925 -250.699)"/><path class="a" d="M280.237,410.813c-.064-.006-.133-.013-.2-.013a1.4,1.4,0,0,0-1.378,1.194,8.815,8.815,0,0,1-8.751,7.538,8.891,8.891,0,0,1-5.824-2.172,8.759,8.759,0,0,1-2.928-5.366,1.4,1.4,0,0,0-1.378-1.194c-.064,0-.133.006-.2.013a1.39,1.39,0,0,0-1.181,1.569,11.623,11.623,0,0,0,23,0,1.382,1.382,0,0,0-.267-1.029A1.33,1.33,0,0,0,280.237,410.813Z" transform="translate(-241.98 -384.712)"/></svg>