<svg xmlns="http://www.w3.org/2000/svg" viewBox="0 0 56 46.7"><defs><style>.a{fill:#f788cf;}</style></defs><g transform="translate(-0.1)"><path class="a" d="M49.552,11.109a8.1,8.1,0,0,0-2.612.7.927.927,0,0,1-1.254-.557C43.213,4.7,36.283,0,28.134,0S13.02,4.7,10.582,11.249a.938.938,0,0,1-1.254.557,8.335,8.335,0,0,0-2.612-.7C3.06,11.109.1,14.94.1,19.676s2.96,8.567,6.617,8.567h0a.971.971,0,0,1,.975,1.114A14.26,14.26,0,0,0,7.553,31.2c0,8.567,9.194,15.5,20.547,15.5s20.547-6.93,20.547-15.5a14.762,14.762,0,0,0-.139-1.846.99.99,0,0,1,.975-1.114h0c3.657,0,6.617-3.831,6.617-8.567C56.168,14.94,53.208,11.109,49.552,11.109Zm-42,14.766c-2.751,0-4.98-2.716-4.98-6.025,0-3.343,2.229-6.025,4.98-6.025a3.936,3.936,0,0,1,1.567.313.987.987,0,0,1,.592.975c-.035.418-.07.836-.07,1.254a14.887,14.887,0,0,0,1.149,5.676.99.99,0,0,1-.139.975,16.743,16.743,0,0,0-1.567,2.3.985.985,0,0,1-.627.488A7.354,7.354,0,0,1,7.553,25.875ZM28.134,42.9c-9.507,0-17.2-5.328-17.2-11.91a9.824,9.824,0,0,1,3.552-7.244.954.954,0,0,0,.209-1.149A12.057,12.057,0,0,1,13.4,17.029c0-5.572,3.483-10.064,7.766-10.064A7.32,7.32,0,0,1,27.333,10.9a.947.947,0,0,0,1.637,0,7.393,7.393,0,0,1,6.164-3.935c4.283,0,7.766,4.492,7.766,10.064A12.507,12.507,0,0,1,41.612,22.6a.909.909,0,0,0,.209,1.149,9.824,9.824,0,0,1,3.552,7.244C45.338,37.541,37.641,42.9,28.134,42.9ZM48.681,25.875a4.322,4.322,0,0,1-.94-.1.985.985,0,0,1-.627-.488,16.743,16.743,0,0,0-1.567-2.3.978.978,0,0,1-.139-.975,14.887,14.887,0,0,0,1.149-5.676c0-.418-.035-.836-.07-1.254a.987.987,0,0,1,.592-.975,3.936,3.936,0,0,1,1.567-.313c2.751,0,4.98,2.716,4.98,6.025C53.661,23.194,51.432,25.875,48.681,25.875Z"/><g transform="translate(20.821 17.064)"><path class="a" d="M89.773,55.129a2.813,2.813,0,0,0,2.473-3.065c0-1.672-1.114-3.065-2.473-3.065A2.813,2.813,0,0,0,87.3,52.065C87.335,53.771,88.414,55.129,89.773,55.129Z" transform="translate(-77.653 -49)"/><path class="a" d="M62.073,55.129a2.813,2.813,0,0,0,2.473-3.065c0-1.672-1.114-3.065-2.473-3.065A2.813,2.813,0,0,0,59.6,52.065,2.813,2.813,0,0,0,62.073,55.129Z" transform="translate(-59.6 -49)"/></g><path class="a" d="M61.491,86.148c5.676-.244,10.169-4.214,9.96-9.02a.842.842,0,0,0-.348-.662,1.436,1.436,0,0,0-2.438,1.01c0,3.2-3.343,5.816-7.522,5.92-4.283-.1-7.7-2.821-7.522-6.129a1.041,1.041,0,0,0-.383-.8,1.452,1.452,0,0,0-2.438,1.01c0,4.632,4.423,8.463,9.96,8.706A5.653,5.653,0,0,1,61.491,86.148Z" transform="translate(-33.044 -49.582)"/></g></svg>